# AST/ASF file generated using VICON BodyLanguage
# -----------------------------------------------
:version 1.10
:name VICON
:units
  mass 1.0
  length 0.45
  angle deg
:documentation
   .ast/.asf automatically generated from VICON data using
   VICON BodyBuilder and BodyLanguage model FoxedUp or BRILLIANT.MOD
:root
   order TX TY TZ RX RY RZ
   axis XYZ
   position 0 0 0  
   orientation 0 0 0 
:bonedata
  begin
     id 1 
     name lhipjoint
     direction 0.543289 -0.788407 0.288535 
     length 2.57127 
     axis 0 0 0  XYZ
  end
  begin
     id 2 
     name lfemur
     direction 0.34202 -0.939693 0  
     length 8.47298  
     axis 0 0 20  XYZ
    dof rx ry rz
    limits (-160.0 20.0)
           (-70.0 70.0)
           (-60.0 70.0)
  end
  begin
     id 3 
     name ltibia
     direction 0.34202 -0.939693 0   
     length 8.13367   
     axis 0 0 20   XYZ
    dof rx
    limits (-10.0 170.0)
  end
  begin
     id 4 
     name lfoot
     direction 0.114037 -0.313314 0.942778   
     length 2.67113   
     axis -90 7.62852e-016 20   XYZ
    dof rx rz
    limits (-45.0 90.0)
           (-70.0 20.0)
  end
  begin
     id 5 
     name ltoes
     direction 1.536e-011 -4.21847e-011 1   
     length 1.32217   
     axis -90 7.62852e-016 20   XYZ
    dof rx
    limits (-90.0 20.0)
  end
  begin
     id 6 
     name rhipjoint
     direction -0.571293 -0.770752 0.282074   
     length 2.63017  
     axis 0 0 0  XYZ 
  end
  begin
     id 7 
     name rfemur
     direction -0.34202 -0.939693 0   
     length 8.60885   
     axis 0 0 -20   XYZ
    dof rx ry rz
    limits (-160.0 20.0)
           (-70.0 70.0)
           (-70.0 60.0)
  end
  begin
     id 8 
     name rtibia
     direction -0.34202 -0.939693 0   
     length 8.07673   
     axis 0 0 -20   XYZ
    dof rx
    limits (-10.0 170.0)
 end
 begin
     id 9 
     name rfoot
     direction -0.121336 -0.333368 0.934956   
     length 2.81602  
     axis -90 -7.62852e-016 -20   XYZ
    dof rx rz
    limits (-45.0 90.0)
           (-20.0 70.0)
  end
  begin
     id 10 
     name rtoes
     direction -1.53491e-011 -4.21808e-011 1   
     length 1.38905   
     axis -90 -7.62852e-016 -20   XYZ
    dof rx
    limits (-90.0 20.0)
  end
  begin
     id 11 
     name lowerback
     direction 0.0136776 0.999869 -0.00861835   
     length 2.14087   
     axis 0 0 0   XYZ
    dof rx ry rz
    limits (-20.0 45.0)
           (-30.0 30.0)
           (-30.0 30.0)
  end
  begin
     id 12 
     name upperback
     direction -0.00789158 0.999804 0.0181308   
     length 2.14151   
     axis 0 0 0   XYZ
    dof rx ry rz
    limits (-20.0 45.0)
           (-30.0 30.0)
           (-30.0 30.0)
  end
  begin
     id 13 
     name thorax
     direction -0.0135231 0.999666 0.0220247   
     length 2.13644   
     axis 0 0 0   XYZ
    dof rx ry rz
    limits (-20.0 45.0)
           (-30.0 30.0)
           (-30.0 30.0)
  end
  begin
     id 14 
     name lowerneck
     direction -0.0392259 0.997317 0.0618018   
     length 1.65045   
     axis 0 0 0   XYZ
    dof rx ry rz
    limits (-20.0 45.0)
           (-30.0 30.0)
           (-30.0 30.0)
  end
  begin
     id 15 
     name upperneck
     direction 0.0765547 0.994276 -0.0745319   
     length 1.66045   
     axis 0 0 0   XYZ
    dof rx ry rz
    limits (-20.0 45.0)
           (-30.0 30.0)
           (-30.0 30.0)
  end
  begin
     id 16
     name head
     direction 0.0241564 0.999031 -0.036785  
     length 1.66594  
     axis 0 0 0   XYZ
    dof rx ry rz
    limits (-20.0 45.0)
           (-30.0 30.0)
           (-30.0 30.0)
  end
  begin
     id 17 
     name lclavicle
     direction 0.967398 0.249018 0.0461573  
     length 3.75176  
     axis 0 0 0   XYZ
    dof ry rz
    limits (-20.0 10.0)
           (0.0 20.0)
  end
  begin
     id 18 
     name lhumerus
     direction 1 -4.48963e-011 -3.05005e-027   
     length 5.93342   
     axis 180 -30 -90   XYZ
    dof rx ry rz
    limits (-60.0 90.0)
           (-90.0 90.0)
           (-90.0 90.0)
  end
  begin
     id 19
     name lradius
     direction 1 -4.48957e-011 1.07006e-026   
     length 3.94763   
     axis 180 -30 -90   XYZ
    dof rx
    limits (-10.0 170.0)
  end
  begin
     id 20
     name lwrist
     direction 1 -4.48978e-011 1.92422e-026   
     length 1.97382   
     axis -1.18182e-014 90 90   XYZ
    dof ry
    limits (-180.0 0.0)
 end
  begin
     id 21 
     name lhand
     direction 1 -4.48931e-011 3.84844e-026   
     length 0.560187   
     axis -2.45563e-014 90 90   XYZ
    dof rx rz
    limits (-90.0 90.0)
           (-45.0 45.0)
  end
  begin
     id 22 
     name lfingers
     direction 1 -4.48952e-011 7.69687e-026   
     length 0.451637   
     axis -4.91126e-014 90 90   XYZ
    dof rx
    limits (0.0 90.0)
  end
  begin
     id 23
     name lthumb
     direction 0.707107 -6.34901e-011 0.707107   
     length 0.648463   
     axis -90 45 2.85299e-015   XYZ
    dof rx rz
    limits (-45.0 45.0)
           (-45.0 45.0)
  end
  begin
     id 24 
     name rclavicle
     direction -0.965946 0.258716 0.00371831   
     length 3.63667  
     axis 0 0 0   XYZ 
    dof ry rz
    limits (-10.0 20.0)
           (-20.0 0.0)
  end
  begin
     id 25 
     name rhumerus
     direction -1 -4.48966e-011 -1.78361e-028  
     length 6.28647   
     axis 180 30 90   XYZ
    dof rx ry rz
    limits (-90.0 60.0)
           (-90.0 90.0)
           (-90.0 90.0)
  end
  begin
     id 26 
     name rradius
     direction -1 -4.48961e-011 1.05248e-026   
     length 3.81645   
     axis 180 30 90   XYZ
    dof rx
    limits (-10.0 170.0)
  end
  begin
     id 27 
     name rwrist
     direction -1 -4.48979e-011 1.92422e-026   
     length 1.90822   
     axis -1.18182e-014 -90 -90   XYZ
    dof ry
    limits (-180.0 0.0)
  end
  begin
     id 28
     name rhand
     direction -1 -4.48937e-011 3.84844e-026   
     length 0.646185   
     axis -2.45563e-014 -90 -90   XYZ
    dof rx rz
    limits (-90.0 90.0)
           (-45.0 45.0)
  end
  begin
     id 29
     name rfingers
     direction -1 -4.48953e-011 7.69687e-026   
     length 0.520971   
     axis -4.91126e-014 -90 -90   XYZ
    dof rx
    limits (0.0 90.0)
  end
  begin
     id 30
     name rthumb
     direction -0.707107 -6.3494e-011 0.707107   
     length 0.748013   
     axis -90 -45 -2.85299e-015   XYZ
    dof rx rz
    limits (-45.0 45.0)
           (-45.0 45.0)
  end
:hierarchy
  begin
    root lhipjoint rhipjoint lowerback
    lhipjoint lfemur
    lfemur ltibia
    ltibia lfoot
    lfoot ltoes
    rhipjoint rfemur
    rfemur rtibia
    rtibia rfoot
    rfoot rtoes
    lowerback upperback
    upperback thorax
    thorax lowerneck lclavicle rclavicle
    lowerneck upperneck
    upperneck head
    lclavicle lhumerus
    lhumerus lradius
    lradius lwrist
    lwrist lhand lthumb
    lhand lfingers
    rclavicle rhumerus
    rhumerus rradius
    rradius rwrist
    rwrist rhand rthumb
    rhand rfingers
  end

#!OML:ASF H:\HAZMAT1\Patient Classification 1\Patient 3\Session 1\dancer.ASF
:FULLY-SPECIFIED
:DEGREES
76
upperback -2.567530 2.245080 0.300360
rfoot -23.942801 -32.635601
lradius 62.420200
lthumb 35.474400 25.399099
rradius 83.770302
lwrist 16.446600
rhand -8.701570 -12.510000
rhumerus 5.080440 48.198101 318.723999
lowerneck 1.039320 -13.315100 -9.915320
lhand 10.367000 -1.044870
ltibia -0.000000
head 4.816880 -9.677000 3.676570
rwrist -38.668900
lfingers 7.125020
rtoes 20.946301
lowerback -0.676208 1.713050 1.186670
rfingers 7.125020
lclavicle 0.000000 -0.000000
upperneck 10.008900 -19.417200 10.412600
rfemur -95.164101 -29.188999 34.623699
thorax -2.219110 1.077020 -0.383184
rclavicle 0.000000 -0.000000
rtibia 79.045502
lfoot -11.867800 3.324060
lhumerus -32.159199 13.770000 3.005820
rthumb 17.233700 -41.765800
root -5.612990 15.765900 52.821999 569.182007 -31.852900 527.843018
ltoes 30.708000
lfemur 33.593201 -17.094900 -14.647700
77
upperback -2.698350 -0.761870 2.398840
rfoot -39.435600 -28.476000
lradius 36.618000
lthumb 22.369600 33.852901
rradius 83.079399
lwrist 8.477380
rhand -4.330580 -13.902300
rhumerus 11.446900 55.460800 316.196991
lowerneck -0.630987 -11.359200 -9.470220
lhand -3.358730 5.128000
ltibia 41.890800
head 6.013780 -8.773350 3.649020
rwrist -42.020802
lfingers 7.125020
rtoes 16.257500
lowerback 1.846320 -0.666897 4.417610
rfingers 7.125020
lclavicle -0.000000 -0.000000
upperneck 13.694000 -17.571800 10.648800
rfemur -69.141602 -19.295200 29.756001
thorax -3.844240 -0.518367 0.043580
rclavicle -0.000000 -0.000000
rtibia 79.056297
lfoot -16.483400 -7.023310
lhumerus -21.344200 11.201700 6.284910
rthumb 21.436501 -42.736301
root -5.827940 16.610500 48.939999 561.887024 -22.496799 533.557007
ltoes 41.737400
lfemur 7.370880 -13.038000 -13.046800
78
upperback -2.070880 -2.667380 4.785470
rfoot -40.711300 -17.053200
lradius 23.811600
lthumb 22.368500 41.732101
rradius 84.983002
lwrist -4.749700
rhand 0.789903 -11.059100
rhumerus 22.580799 57.183899 314.571014
lowerneck -0.449708 -14.014900 -9.299730
lhand -3.359930 13.007100
ltibia 83.135696
head 6.295960 -9.140160 3.761080
rwrist -44.824299
lfingers 7.125020
rtoes 3.521130
lowerback 3.986540 -2.563470 5.098000
rfingers 7.125020
lclavicle -0.000000 -0.000000
upperneck 13.689600 -19.438200 11.645700
rfemur -44.063000 -1.889720 23.095100
thorax -4.405720 -1.285460 2.311970
rclavicle -0.000000 -0.000000
rtibia 68.032700
lfoot -16.851601 9.583590
lhumerus -5.640470 22.752300 5.273640
rthumb 26.346701 -39.249001
root -6.866530 17.401699 44.804199 558.427002 10.538100 539.573975
ltoes 5.747250
lfemur -57.006100 -11.171000 -4.758590
79
upperback -1.736540 -4.342590 6.662880
rfoot -23.487000 -8.169620
lradius 25.224100
lthumb 19.384701 42.742699
rradius 86.794701
lwrist -4.294740
rhand 6.614210 -13.199800
rhumerus 31.854500 67.788200 312.350006
lowerneck 0.587917 -13.718000 -12.705200
lhand -6.465590 13.688900
ltibia 40.530899
head 6.130230 -9.344280 3.902400
rwrist -43.758099
lfingers 7.125020
rtoes -12.701400
lowerback 3.660150 -3.682030 3.096540
rfingers 7.125020
lclavicle 0.000000 -0.000000
upperneck 13.241300 -19.047600 10.221900
rfemur -40.509499 26.028500 -14.432200
thorax -3.569710 -2.082890 5.481480
rclavicle 0.000000 -0.000000
rtibia 37.526199
lfoot -18.949800 -5.732740
lhumerus -29.926901 11.059300 10.461300
rthumb 31.908400 -40.424099
root -8.713580 18.483101 38.513802 556.505981 78.763100 535.880005
ltoes -19.470501
lfemur -40.457699 -36.303200 18.634100
80
upperback -0.717495 1.299310 2.857590
rfoot -49.957802 -41.675400
lradius 18.741699
lthumb 11.779300 49.667702
rradius 84.954597
lwrist -16.135201
rhand 9.465030 -11.960500
rhumerus 17.241400 64.957298 282.135986
lowerneck 0.348099 -14.313900 -11.075200
lhand -14.362700 20.018999
ltibia 41.446400
head 6.561930 -9.866050 3.545960
rwrist -43.089001
lfingers 7.125020
rtoes 36.103600
lowerback 2.974620 0.834118 2.799090
rfingers 7.125020
lclavicle 0.000000 -0.000000
upperneck 14.519200 -20.239201 10.379100
rfemur -57.657600 30.891199 -20.781099
thorax -2.411130 0.633325 1.302770
rclavicle 0.000000 -0.000000
rtibia 36.366199
lfoot -26.206200 -1.350370
lhumerus -56.913700 18.863800 11.962700
rthumb 34.618801 -38.604698
root -9.224040 19.038099 32.954601 562.882019 155.817993 533.013977
ltoes 3.062660
lfemur -32.915100 -33.993900 -3.336060
81
upperback -0.509712 3.476410 1.972930
rfoot -35.866001 -47.269501
lradius 20.479601
lthumb 8.629570 53.770401
rradius 76.636703
lwrist -12.295700
rhand 10.432400 -10.850100
rhumerus 8.407970 62.386398 270.279999
lowerneck 2.338370 -13.629200 -11.393100
lhand -17.627800 23.966801
ltibia 51.380001
head 5.825650 -9.680690 3.657640
rwrist -44.550800
lfingers 7.125020
rtoes 47.176399
lowerback 1.146900 2.574080 1.435470
rfingers 7.125020
lclavicle -0.000000 -0.000000
upperneck 13.633800 -19.473700 9.726250
rfemur -31.255100 15.265800 -5.669380
thorax -1.201680 1.733330 1.141740
rclavicle -0.000000 -0.000000
rtibia 33.549500
lfoot -32.283699 13.077100
lhumerus -49.144402 17.295700 6.729020
rthumb 35.536400 -37.279099
root -9.856540 18.679199 29.830500 563.677002 201.634003 529.075012
ltoes 10.770600
lfemur -36.491501 -19.233500 -8.289880
82
upperback -1.399970 -0.066803 1.542990
rfoot -60.143501 -38.910000
lradius 23.607300
lthumb 9.576060 54.136002
rradius 54.375900
lwrist -7.887880
rhand 10.077000 -11.323900
rhumerus -0.626006 45.826099 261.282013
lowerneck -0.101585 -11.788600 -12.502800
lhand -16.646900 24.373600
ltibia 53.096802
head 6.796000 -8.463160 2.383180
rwrist -40.446999
lfingers 7.125020
rtoes 20.076900
lowerback 0.042986 -0.057772 -0.194663
rfingers 7.125020
lclavicle 0.000000 -0.000000
upperneck 17.432501 -16.361799 4.878990
rfemur -18.566700 15.859600 4.854250
thorax -1.455680 -0.023719 1.691080
rclavicle 0.000000 -0.000000
rtibia 31.667700
lfoot -30.621901 12.217000
lhumerus -25.332199 14.999600 9.660250
rthumb 35.199402 -37.833199
root -11.304500 18.550600 27.313999 560.599976 226.003998 530.452026
ltoes 5.146270
lfemur -32.448601 4.807550 -9.810930
83
upperback -2.374130 -2.471520 1.324520
rfoot -46.416599 -44.813301
lradius 21.541401
lthumb 10.494200 51.899300
rradius 27.305300
lwrist -11.918000
rhand -1.957010 -9.232460
rhumerus -6.724960 -1.047840 272.976013
lowerneck -3.572100 -6.694800 -4.594760
lhand -15.695200 22.181299
ltibia 54.218102
head 5.027880 -4.645470 -1.034180
rwrist -24.413099
lfingers 7.125020
rtoes 17.555000
lowerback 0.122351 -1.905570 4.614580
rfingers 7.125020
lclavicle -0.000000 0.000000
upperneck 14.691300 -8.305670 -4.277020
rfemur -26.077299 19.533001 2.314780
thorax -2.649100 -1.329310 -1.155460
rclavicle -0.000000 0.000000
rtibia 32.613098
lfoot -21.646601 -2.344930
lhumerus -18.534901 18.388700 15.505300
rthumb 23.714600 -37.789398
root -12.288200 18.653999 26.195601 558.617981 245.785004 533.591980
ltoes -7.851840
lfemur -31.342699 9.134320 -7.025050
84
upperback -2.474050 -5.265480 1.985230
rfoot -34.853001 -43.284599
lradius 21.113501
lthumb 10.417800 51.238201
rradius 25.669300
lwrist -12.539300
rhand -25.586599 -26.691799
rhumerus -41.078499 -44.238602 331.576996
lowerneck -1.937280 -2.895750 -1.366080
lhand -15.774300 21.516300
ltibia 50.958599
head 4.250150 -2.096180 -0.990507
rwrist -23.058500
lfingers 7.125020
rtoes 11.677200
lowerback -0.092146 -3.968930 2.230670
rfingers 7.125020
lclavicle -0.000000 0.000000
upperneck 12.021700 -3.668280 -3.192650
rfemur -26.225800 22.564501 3.637960
thorax -2.503040 -2.670580 0.906419
rclavicle -0.000000 0.000000
rtibia 32.644600
lfoot -27.131500 4.543410
lhumerus -17.808901 19.774000 11.971100
rthumb 0.945030 -56.669399
root -12.715800 18.427601 26.802099 572.406006 255.792007 517.130005
ltoes -0.754761
lfemur -27.522100 14.053600 -5.523460
